<?xml version="1.0" encoding="iso-8859-1"?>
<!-- Generator: Adobe Illustrator 19.0.0, SVG Export Plug-In . SVG Version: 6.00 Build 0)  -->
<svg version="1.1" id="Capa_1" xmlns="http://www.w3.org/2000/svg" xmlns:xlink="http://www.w3.org/1999/xlink" x="0px" y="0px"
	 viewBox="0 0 479.999 479.999" style="enable-background:new 0 0 479.999 479.999;" xml:space="preserve">
<g>
	<path style="fill:#D45B5B;" d="M131.925,121.564c-3.144,1.024-6.24,2.152-9.352,3.272
		C125.677,123.716,128.781,122.596,131.925,121.564z"/>
	<path style="fill:#D45B5B;" d="M132.125,271.004c-0.288-0.04-0.568-0.064-0.856-0.112
		C131.549,270.94,131.837,270.964,132.125,271.004z"/>
	<path style="fill:#D45B5B;" d="M175.797,265.5c-0.552,0.232-1.104,0.456-1.656,0.672
		C174.701,265.956,175.253,265.732,175.797,265.5z"/>
	<path style="fill:#D45B5B;" d="M169.605,267.804c-0.552,0.184-1.112,0.344-1.672,0.512
		C168.485,268.148,169.045,267.988,169.605,267.804z"/>
	<path style="fill:#D45B5B;" d="M163.229,269.604c-0.496,0.12-0.992,0.216-1.488,0.32
		C162.229,269.82,162.733,269.724,163.229,269.604z"/>
	<path style="fill:#D45B5B;" d="M156.725,270.892c-0.288,0.048-0.568,0.072-0.856,0.112
		C156.157,270.964,156.445,270.94,156.725,270.892z"/>
	<path style="fill:#D45B5B;" d="M113.853,266.172c-0.552-0.216-1.104-0.44-1.656-0.672
		C112.741,265.732,113.293,265.956,113.853,266.172z"/>
	<path style="fill:#D45B5B;" d="M126.261,269.932c-0.496-0.112-0.992-0.208-1.488-0.32
		C125.261,269.724,125.765,269.82,126.261,269.932z"/>
	<path style="fill:#D45B5B;" d="M120.061,268.316c-0.56-0.168-1.12-0.336-1.672-0.512
		C118.949,267.988,119.509,268.148,120.061,268.316z"/>
	<path style="fill:#D45B5B;" d="M181.757,262.724c-0.496,0.256-0.992,0.52-1.496,0.768
		C180.765,263.244,181.261,262.98,181.757,262.724z"/>
	<path style="fill:#D45B5B;" d="M187.341,259.58c-0.368,0.232-0.736,0.472-1.104,0.696
		C186.605,260.052,186.973,259.812,187.341,259.58z"/>
	<path style="fill:#D45B5B;" d="M107.725,263.492c-0.504-0.248-1-0.512-1.496-0.768C106.733,262.98,107.229,263.244,107.725,263.492
		z"/>
	<path style="fill:#D45B5B;" d="M102.397,132.764c-3.968,1.712-7.888,3.536-11.784,5.4
		C94.509,136.292,98.437,134.484,102.397,132.764z"/>
	<path style="fill:#D45B5B;" d="M116.949,126.852c-3.632,1.376-7.208,2.848-10.792,4.344
		C109.733,129.7,113.325,128.228,116.949,126.852z"/>
	<path style="fill:#D45B5B;" d="M101.757,260.276c-0.376-0.224-0.736-0.472-1.104-0.696
		C101.021,259.812,101.389,260.052,101.757,260.276z"/>
	<path style="fill:#D45B5B;" d="M147.349,116.932c-2.384,0.656-4.736,1.408-7.104,2.12
		C142.605,118.34,144.957,117.588,147.349,116.932z"/>
	<path style="fill:#D45B5B;" d="M88.261,139.284c-4.2,2.048-8.352,4.2-12.472,6.432C79.901,143.484,84.061,141.34,88.261,139.284z"
		/>
	<path style="fill:#D45B5B;" d="M74.517,146.404c-4.352,2.376-8.64,4.848-12.88,7.416C65.877,151.244,70.173,148.78,74.517,146.404z
		"/>
</g>
<path style="fill:#FFFFFF;" d="M100.653,259.58c0.368,0.232,0.736,0.472,1.104,0.696c1.472,0.872,2.968,1.672,4.472,2.448
	c0.496,0.256,0.992,0.52,1.496,0.768c1.472,0.72,2.96,1.384,4.464,2.008c0.552,0.232,1.104,0.456,1.656,0.672
	c1.504,0.584,3.016,1.136,4.544,1.632c0.552,0.184,1.112,0.344,1.672,0.512c1.56,0.472,3.128,0.912,4.704,1.288
	c0.496,0.12,0.992,0.216,1.488,0.32c1.664,0.368,3.328,0.704,5.008,0.968c0.288,0.048,0.568,0.072,0.856,0.112
	c7.872,1.136,15.872,1.136,23.744,0c0.288-0.04,0.568-0.064,0.856-0.112c1.68-0.264,3.344-0.6,5.008-0.968
	c0.496-0.112,0.992-0.208,1.488-0.32c1.576-0.376,3.144-0.816,4.704-1.288c0.56-0.168,1.12-0.336,1.672-0.512
	c1.528-0.496,3.04-1.04,4.544-1.632c0.552-0.216,1.104-0.44,1.656-0.672c1.504-0.624,2.992-1.288,4.464-2.008
	c0.504-0.248,1-0.512,1.496-0.768c1.504-0.776,3.008-1.576,4.472-2.448c0.376-0.224,0.736-0.472,1.104-0.696
	c1.576-0.968,3.136-1.968,4.656-3.048l0,0c1.688-1.208,3.36-2.44,4.976-3.784l0,0c27.28-22.72,43.04-56.368,43.04-91.856
	c0-0.328-0.048-0.64-0.048-0.968h-23.952c-26.512,0-48-21.488-48-48l-4.824,1.072c-5.312,1.184-10.592,2.504-15.832,3.936
	c-2.384,0.656-4.736,1.408-7.104,2.12c-2.776,0.824-5.56,1.624-8.32,2.52c-3.144,1.024-6.24,2.152-9.352,3.272
	c-1.872,0.672-3.76,1.312-5.624,2.016c-3.624,1.376-7.216,2.848-10.792,4.344c-1.256,0.52-2.512,1.024-3.76,1.568
	c-3.96,1.72-7.888,3.528-11.784,5.4c-0.784,0.376-1.576,0.744-2.352,1.12c-4.2,2.056-8.36,4.2-12.472,6.432
	c-0.424,0.232-0.848,0.456-1.272,0.688c-4.344,2.376-8.64,4.848-12.88,7.416c-0.168,0.104-0.336,0.2-0.496,0.304
	c-4.408,2.68-8.76,5.456-13.048,8.336c0.456,34.904,16.08,67.912,42.936,90.296l0,0c1.616,1.344,3.288,2.584,4.976,3.784l0,0
	C97.517,257.612,99.077,258.612,100.653,259.58z"/>
<polygon style="fill:#B3D5E4;" points="191.997,351.924 191.997,311.924 143.997,335.924 "/>
<g>
	<polygon style="fill:#D45B5B;" points="95.997,311.924 95.997,295.924 23.997,319.924 7.997,471.924 95.997,471.924 
		95.997,351.924 	"/>
	<polygon style="fill:#D45B5B;" points="265.685,335.924 263.997,319.924 191.997,295.924 191.997,311.924 191.997,351.924 
		191.997,471.924 279.997,471.924 	"/>
</g>
<polygon style="fill:#B3D5E4;" points="95.997,351.924 143.997,335.924 95.997,311.924 "/>
<path style="fill:#FFFFFF;" d="M143.997,335.924l48-24v-16v-39.392c-1.52,1.088-3.08,2.08-4.656,3.048
	c-0.368,0.232-0.736,0.472-1.104,0.696c-1.472,0.872-2.96,1.672-4.472,2.448c-0.496,0.256-0.992,0.52-1.496,0.768
	c-1.472,0.72-2.96,1.384-4.464,2.008c-0.552,0.232-1.104,0.456-1.656,0.672c-1.504,0.584-3.016,1.136-4.544,1.632
	c-0.552,0.184-1.112,0.344-1.672,0.512c-1.56,0.472-3.128,0.912-4.704,1.288c-0.496,0.12-0.992,0.216-1.488,0.32
	c-1.664,0.368-3.328,0.704-5.008,0.968c-0.288,0.04-0.568,0.072-0.856,0.112c-7.88,1.136-15.872,1.136-23.744,0
	c-0.288-0.04-0.568-0.064-0.856-0.112c-1.68-0.264-3.344-0.6-5.008-0.968c-0.496-0.112-0.992-0.208-1.488-0.32
	c-1.584-0.376-3.144-0.816-4.704-1.288c-0.56-0.168-1.12-0.336-1.672-0.512c-1.528-0.496-3.04-1.04-4.544-1.632
	c-0.552-0.216-1.104-0.44-1.656-0.672c-1.504-0.624-2.992-1.288-4.464-2.008c-0.504-0.248-0.992-0.512-1.496-0.768
	c-1.512-0.776-3-1.576-4.472-2.448c-0.376-0.224-0.736-0.472-1.104-0.696c-1.576-0.968-3.136-1.968-4.656-3.048v39.392v16
	L143.997,335.924z"/>
<g>
	<path style="fill:#D45B5B;" d="M112.197,265.5c-1.504-0.624-2.992-1.288-4.464-2.008
		C109.197,264.212,110.685,264.876,112.197,265.5z"/>
	<path style="fill:#D45B5B;" d="M118.389,267.804c-1.528-0.496-3.04-1.04-4.544-1.632
		C115.349,266.756,116.861,267.308,118.389,267.804z"/>
	<path style="fill:#D45B5B;" d="M124.765,269.604c-1.576-0.376-3.144-0.816-4.704-1.288
		C121.621,268.788,123.189,269.228,124.765,269.604z"/>
	<path style="fill:#D45B5B;" d="M187.341,259.58c1.576-0.968,3.136-1.968,4.656-3.048l0,0
		C190.477,257.612,188.917,258.612,187.341,259.58z"/>
	<path style="fill:#D45B5B;" d="M95.997,256.532L95.997,256.532c1.52,1.088,3.08,2.08,4.656,3.048
		C99.077,258.612,97.517,257.612,95.997,256.532z"/>
	<path style="fill:#D45B5B;" d="M106.237,262.724c-1.504-0.776-3.008-1.576-4.472-2.448
		C103.229,261.148,104.725,261.948,106.237,262.724z"/>
	<path style="fill:#D45B5B;" d="M131.269,270.892c-1.68-0.264-3.344-0.6-5.008-0.968
		C127.925,270.292,129.589,270.636,131.269,270.892z"/>
	<path style="fill:#D45B5B;" d="M132.125,271.004c7.88,1.136,15.872,1.136,23.744,0
		C147.997,272.148,139.997,272.148,132.125,271.004z"/>
	<path style="fill:#D45B5B;" d="M180.269,263.492c-1.472,0.72-2.96,1.384-4.464,2.008
		C177.309,264.876,178.797,264.212,180.269,263.492z"/>
	<path style="fill:#D45B5B;" d="M161.733,269.932c-1.664,0.368-3.328,0.704-5.008,0.968
		C158.405,270.636,160.069,270.292,161.733,269.932z"/>
	<path style="fill:#D45B5B;" d="M174.141,266.172c-1.504,0.584-3.016,1.136-4.544,1.632
		C171.133,267.308,172.645,266.756,174.141,266.172z"/>
	<path style="fill:#D45B5B;" d="M186.237,260.276c-1.472,0.872-2.968,1.672-4.472,2.448
		C183.269,261.948,184.765,261.148,186.237,260.276z"/>
	<path style="fill:#D45B5B;" d="M167.933,268.316c-1.56,0.472-3.128,0.912-4.704,1.288
		C164.805,269.228,166.373,268.788,167.933,268.316z"/>
</g>
<path style="fill:#B3D5E4;" d="M74.517,146.404c0.424-0.232,0.848-0.456,1.272-0.688c4.12-2.224,8.272-4.376,12.472-6.432
	c0.784-0.384,1.568-0.744,2.352-1.12c3.896-1.864,7.816-3.68,11.784-5.4c1.248-0.544,2.512-1.04,3.76-1.568
	c3.576-1.496,7.16-2.976,10.792-4.344c1.864-0.704,3.752-1.344,5.624-2.016c3.112-1.112,6.208-2.248,9.352-3.272
	c2.752-0.896,5.536-1.688,8.32-2.52c2.368-0.704,4.72-1.464,7.104-2.12c5.24-1.432,10.512-2.76,15.832-3.936l4.816-1.064
	c0,26.512,21.488,48,48,48h23.952h8.048v-8c0-57.44-46.56-104-104-104s-104,46.56-104,104v16
	c6.864-4.904,13.952-9.448,21.136-13.808c0.168-0.104,0.328-0.2,0.496-0.304C65.877,151.244,70.165,148.772,74.517,146.404z"/>
<g>
	<path style="fill:#D45B5B;" d="M122.573,124.836c-1.872,0.672-3.76,1.312-5.624,2.016
		C118.813,126.148,120.701,125.508,122.573,124.836z"/>
	<path style="fill:#D45B5B;" d="M163.173,112.996c-5.312,1.184-10.592,2.504-15.832,3.936
		C152.589,115.5,157.861,114.172,163.173,112.996z"/>
	<path style="fill:#D45B5B;" d="M106.157,131.196c-1.256,0.528-2.512,1.024-3.76,1.568
		C103.645,132.228,104.909,131.724,106.157,131.196z"/>
	<path style="fill:#D45B5B;" d="M90.613,138.164c-0.784,0.376-1.576,0.736-2.352,1.12C89.037,138.9,89.829,138.54,90.613,138.164z"
		/>
	<path style="fill:#D45B5B;" d="M140.237,119.052c-2.776,0.824-5.568,1.624-8.32,2.52
		C134.677,120.676,137.461,119.876,140.237,119.052z"/>
	<path style="fill:#D45B5B;" d="M61.133,154.116c0.168-0.104,0.336-0.2,0.496-0.304C61.469,153.916,61.301,154.012,61.133,154.116z"
		/>
	<path style="fill:#D45B5B;" d="M75.789,145.716c-0.424,0.232-0.848,0.456-1.272,0.688C74.941,146.172,75.365,145.94,75.789,145.716
		z"/>
</g>
<g>
	<polygon style="fill:#B3D5E4;" points="143.997,335.924 167.997,423.924 143.997,471.924 191.997,471.924 191.997,351.924 	"/>
	<polygon style="fill:#B3D5E4;" points="143.997,335.924 95.997,351.924 95.997,471.924 143.997,471.924 119.997,423.924 	"/>
</g>
<polygon style="fill:#D45B5B;" points="143.997,335.924 119.997,423.924 143.997,471.924 167.997,423.924 "/>
<path style="fill:#E4D9B3;" d="M435.357,391.924h-59.36v16h-40v-16h-59.36c-1.984,0-3.84-0.776-5.28-2.056l-2.128-20.232
	l10.768,102.288h184c4.416,0,8-3.584,8-8v-120c0-1.856-0.736-3.496-1.8-4.848l-27.896,48.816
	C440.877,390.388,438.229,391.924,435.357,391.924z"/>
<g>
	<polygon style="fill:#D45B5B;" points="265.685,335.924 279.997,471.924 269.229,369.644 	"/>
	<polygon style="fill:#D45B5B;" points="351.997,167.924 351.997,87.924 391.997,87.924 327.997,7.924 263.997,87.924 
		303.997,87.924 303.997,335.924 351.997,335.924 	"/>
</g>
<polygon style="fill:#B3D5E4;" points="471.997,191.924 423.997,143.924 423.997,167.924 383.997,167.924 351.997,167.924 
	351.997,335.924 383.997,335.924 383.997,215.924 423.997,215.924 423.997,239.924 "/>
<path style="fill:#D45B5B;" d="M470.197,339.076l1.8-3.152h-8C466.557,335.924,468.733,337.204,470.197,339.076z"/>
<path style="fill:#E4D9B3;" d="M303.997,335.924h-38.312l3.552,33.72l2.128,20.232c1.44,1.28,3.296,2.056,5.28,2.056h59.352v-16h40
	v16h59.36c2.872,0,5.52-1.536,6.944-4.032l27.896-48.816c-1.464-1.88-3.64-3.16-6.2-3.16h-80h-32H303.997z"/>
<polygon style="fill:#D45B5B;" points="269.229,369.644 265.685,335.924 265.685,335.924 "/>
<polygon style="fill:#E4D9B3;" points="375.997,407.924 375.997,391.924 375.997,375.924 335.997,375.924 335.997,391.924 
	335.997,407.924 "/>
<path style="fill:#23374E;" d="M420.933,247.316c2.984,1.24,6.432,0.552,8.72-1.736l48-48c3.128-3.128,3.128-8.184,0-11.312l-48-48
	c-2.288-2.288-5.736-2.992-8.72-1.736c-2.984,1.232-4.936,4.16-4.936,7.392v16h-56v-64h32c3.072,0,5.88-1.768,7.208-4.528
	c1.336-2.776,0.96-6.064-0.968-8.472l-64-80c-3.032-3.8-9.464-3.8-12.496,0l-64,80c-1.92,2.408-2.296,5.696-0.968,8.472
	c1.344,2.76,4.152,4.528,7.224,4.528h32v232h-23.112l-0.928-8.832c-0.328-3.128-2.448-5.76-5.424-6.752l-66.536-22.176v-29.672
	c0.696-0.544,1.416-1.032,2.104-1.6c27.352-22.8,43.576-55.664,45.512-90.968h0.384c4.416,0,8-3.576,8-8v-8
	c0-61.76-50.24-112-112-112s-112,50.24-112,112v16c0,3,1.672,5.744,4.336,7.12c1.16,0.592,2.416,0.88,3.664,0.88
	c0.328,0,0.648-0.112,0.976-0.152c3.776,32.336,19.704,62.096,44.92,83.12c0.68,0.568,1.408,1.056,2.104,1.6v29.672L21.469,312.34
	c-2.976,0.992-5.096,3.624-5.424,6.752l-16,152c-0.24,2.248,0.496,4.504,2.008,6.184s3.68,2.648,5.944,2.648h88h96h88h184
	c8.824,0,16-7.176,16-16v-120c0-1.648-0.32-3.2-0.784-4.696c1.072-2.344,1.016-5.064-0.296-7.32
	c-1.432-2.472-4.072-3.984-6.92-3.984h-8h-72v-104h24v16C415.997,243.156,417.949,246.084,420.933,247.316z M303.997,79.924h-23.352
	l47.352-59.192l47.352,59.192h-23.352c-4.416,0-8,3.576-8,8v80v160h-32v-240C311.997,83.5,308.413,79.924,303.997,79.924z
	 M256.581,325.884l1.144,10.872l0,0l13.384,127.168h-71.112v-112v-40v-4.896L256.581,325.884z M159.477,423.084l-15.48,30.952
	l-15.48-30.952l15.48-56.752L159.477,423.084z M183.997,340.82l-19.144-6.376l19.144-9.576V340.82z M103.997,340.82v-15.952
	l19.144,9.576L103.997,340.82z M47.997,151.924c0-52.936,43.064-96,96-96s96,43.064,96,96h-0.048h-23.952c-22.056,0-40-17.944-40-40
	c0-2.432-1.104-4.72-2.992-6.24c-1.888-1.512-4.368-2.08-6.744-1.568l-4.824,1.072c-5.232,1.16-10.416,2.448-15.568,3.84
	c-0.448,0.12-0.88,0.264-1.32,0.384c-4.768,1.312-9.512,2.712-14.2,4.216l0,0c-29.08,9.352-56.648,22.432-82.352,39.152V151.924z
	 M56.221,166.652c11.928-7.784,24.264-14.744,36.944-20.888c0.336-0.16,0.672-0.328,1.016-0.488c3.784-1.816,7.6-3.544,11.44-5.208
	c0.888-0.384,1.784-0.76,2.672-1.136c3.44-1.456,6.904-2.856,10.392-4.192c1.464-0.56,2.944-1.088,4.416-1.624
	c3.04-1.112,6.08-2.216,9.152-3.24c2.256-0.752,4.544-1.432,6.824-2.136c2.408-0.744,4.816-1.52,7.24-2.216
	c4.808-1.36,9.648-2.64,14.536-3.792c4.656,26.216,27.616,46.192,55.144,46.192h15.784c-1.912,30.552-16.224,58.92-39.92,78.672
	c-1.456,1.216-2.968,2.328-4.496,3.416c0,0-0.008,0-0.008,0.008c-3.128,2.232-6.4,4.168-9.76,5.856
	c-0.216,0.104-0.424,0.224-0.64,0.328c-3.288,1.616-6.664,2.976-10.096,4.08c-0.264,0.088-0.528,0.16-0.792,0.24
	c-3.488,1.08-7.032,1.92-10.608,2.472c-0.104,0.016-0.208,0.024-0.312,0.04c-7.416,1.12-14.952,1.12-22.368,0
	c-0.072-0.008-0.152-0.016-0.224-0.032c-3.616-0.56-7.192-1.408-10.704-2.496c-0.224-0.072-0.44-0.136-0.664-0.208
	c-3.48-1.112-6.888-2.488-10.208-4.12c-0.176-0.088-0.344-0.176-0.52-0.264c-3.384-1.704-6.672-3.648-9.816-5.896
	c-0.008-0.008-0.016-0.008-0.024-0.016c-1.52-1.088-3.024-2.2-4.48-3.408C72.213,226.66,57.821,197.724,56.221,166.652z
	 M123.093,277.42c0.44,0.104,0.88,0.184,1.32,0.288c2.808,0.616,5.64,1.104,8.48,1.456c0.456,0.056,0.904,0.128,1.36,0.176
	c3.24,0.344,6.488,0.584,9.744,0.584s6.504-0.24,9.744-0.584c0.456-0.048,0.904-0.12,1.36-0.176c2.848-0.352,5.672-0.832,8.48-1.456
	c0.44-0.096,0.88-0.184,1.32-0.288c6.424-1.52,12.696-3.744,18.736-6.68c0.12-0.056,0.24-0.096,0.36-0.152v25.336v11.056l-40,20
	l-40-20v-11.056v-25.328c0.12,0.056,0.24,0.096,0.36,0.152C110.389,273.684,116.669,275.908,123.093,277.42z M31.413,325.884
	l56.584-18.856v4.896v40v112H16.885L31.413,325.884z M103.997,357.692l28.352-9.448l-20.072,73.584
	c-0.512,1.896-0.32,3.92,0.56,5.68l18.216,36.416h-27.056V357.692z M156.941,463.924l18.208-36.424c0.88-1.76,1.08-3.784,0.56-5.68
	l-20.072-73.584l28.36,9.456v106.232H156.941z M287.197,463.924l-2.104-20l-4.632-44h47.536v8c0,4.424,3.584,8,8,8h40
	c4.416,0,8-3.576,8-8v-8h51.36c5.72,0,11.048-3.088,13.888-8.064l14.752-25.808v97.872H287.197z M367.997,391.924v8h-24v-8v-8h24
	V391.924z M435.357,383.924h-51.36v-8c0-4.424-3.584-8-8-8h-40c-4.416,0-8,3.576-8,8v7.992l-49.224-0.024l-4.208-39.968h29.432h48
	h32h74.216L435.357,383.924z M383.997,207.924c-4.416,0-8,3.576-8,8v112h-16v-152h64c4.416,0,8-3.576,8-8v-4.688l28.688,28.688
	l-28.688,28.688v-4.688c0-4.424-3.584-8-8-8H383.997z"/>
<g>
</g>
<g>
</g>
<g>
</g>
<g>
</g>
<g>
</g>
<g>
</g>
<g>
</g>
<g>
</g>
<g>
</g>
<g>
</g>
<g>
</g>
<g>
</g>
<g>
</g>
<g>
</g>
<g>
</g>
</svg>
